<?xml version="1.0" standalone="no"?><!DOCTYPE svg PUBLIC "-//W3C//DTD SVG 1.1//EN" "http://www.w3.org/Graphics/SVG/1.1/DTD/svg11.dtd"><svg height="1080" node-id="1" sillyvg="true" template-height="1080" template-width="1080" version="1.1" viewBox="0 0 1080 1080" width="1080" xmlns="http://www.w3.org/2000/svg" xmlns:xlink="http://www.w3.org/1999/xlink"><defs node-id="119"><linearGradient gradientUnits="objectBoundingBox" id="linearGradient-1" node-id="5" spreadMethod="pad" x1="1.2094132" x2="-0.25048688" y1="0.494954" y2="0.494954"><stop offset="0" stop-color="#c8cacd" stop-opacity="0"></stop><stop offset="1" stop-color="#b2b4b8"></stop></linearGradient><linearGradient gradientUnits="objectBoundingBox" id="linearGradient-2" node-id="8" spreadMethod="pad" x1="0.5169359" x2="0.47718045" y1="0.0974362" y2="1.0007974"><stop offset="0" stop-color="#f4f5f5"></stop><stop offset="1" stop-color="#b3b5b9"></stop></linearGradient><linearGradient gradientUnits="objectBoundingBox" id="linearGradient-3" node-id="11" spreadMethod="pad" x1="0.49269038" x2="0.5171384" y1="0.074888974" y2="0.9985334"><stop offset="0" stop-color="#f3f4f4"></stop><stop offset="1" stop-color="#b3b5b9"></stop></linearGradient><linearGradient gradientUnits="objectBoundingBox" id="linearGradient-4" node-id="14" spreadMethod="pad" x1="0.49934217" x2="0.49934217" y1="1.0001063" y2="-0.44149366"><stop offset="0" stop-color="#f8f8f9"></stop><stop offset="1" stop-color="#e2e3e4"></stop></linearGradient><linearGradient gradientUnits="objectBoundingBox" id="linearGradient-5" node-id="17" spreadMethod="pad" x1="0.49995044" x2="0.49995044" y1="0.9963928" y2="0.028771166"><stop offset="0" stop-color="#f4f5f5" stop-opacity="0"></stop><stop offset="1" stop-color="#eeeff0"></stop></linearGradient><linearGradient gradientUnits="objectBoundingBox" id="linearGradient-8" node-id="26" spreadMethod="pad" x1="0.5234527" x2="0.4701875" y1="0.09366339" y2="0.9998581"><stop offset="0" stop-color="#f4f5f5"></stop><stop offset="1" stop-color="#b3b5b9"></stop></linearGradient><linearGradient gradientUnits="objectBoundingBox" id="linearGradient-9" node-id="29" spreadMethod="pad" x1="0.48885635" x2="0.52457744" y1="0.07504363" y2="0.9966593"><stop offset="0" stop-color="#f3f4f4"></stop><stop offset="1" stop-color="#b3b5b9"></stop></linearGradient><linearGradient gradientUnits="objectBoundingBox" id="linearGradient-10" node-id="32" spreadMethod="pad" x1="0.52245086" x2="0.46896598" y1="0.09786528" y2="1.0030867"><stop offset="0" stop-color="#f4f5f5"></stop><stop offset="1" stop-color="#b3b5b9"></stop></linearGradient><linearGradient gradientUnits="objectBoundingBox" id="linearGradient-11" node-id="35" spreadMethod="pad" x1="0.4876765" x2="0.52464366" y1="0.074530855" y2="0.9967368"><stop offset="0" stop-color="#f3f4f4"></stop><stop offset="1" stop-color="#b3b5b9"></stop></linearGradient><linearGradient gradientUnits="objectBoundingBox" id="linearGradient-12" node-id="38" spreadMethod="pad" x1="0.49949062" x2="0.49949062" y1="-0.000019722998" y2="0.9999015"><stop offset="0" stop-color="#f4f5f5"></stop><stop offset="1" stop-color="#d7d8da"></stop></linearGradient><linearGradient gradientUnits="objectBoundingBox" id="linearGradient-13" node-id="41" spreadMethod="pad" x1="0.49949062" x2="0.49949062" y1="-0.000039418042" y2="0.9998818"><stop offset="0" stop-color="#eeeff0"></stop><stop offset="1" stop-color="#d7d8da"></stop></linearGradient><linearGradient gradientUnits="objectBoundingBox" id="linearGradient-14" node-id="44" spreadMethod="pad" x1="0.5002439" x2="0.5002439" y1="0.004842722" y2="1.0006443"><stop offset="0" stop-color="#e5e5e7"></stop><stop offset="1" stop-color="#ffffff" stop-opacity="0.09743772"></stop></linearGradient><linearGradient gradientUnits="objectBoundingBox" id="linearGradient-15" node-id="47" spreadMethod="pad" x1="0.5002439" x2="0.5002439" y1="0.0048721577" y2="1.0006764"><stop offset="0" stop-color="#ffffff"></stop><stop offset="1" stop-color="#ffffff" stop-opacity="0.09743772"></stop></linearGradient><linearGradient gradientUnits="objectBoundingBox" id="linearGradient-16" node-id="50" spreadMethod="pad" x1="1.3096495" x2="0.0004051206" y1="0.49997464" y2="0.49973646"><stop offset="0" stop-color="#eaeaeb"></stop><stop offset="1" stop-color="#c3c4c8"></stop></linearGradient><linearGradient gradientUnits="objectBoundingBox" id="linearGradient-17" node-id="53" spreadMethod="pad" x1="0.4253151" x2="0.5767937" y1="0.024838012" y2="0.9883379"><stop offset="0" stop-color="#f9f9fa"></stop><stop offset="1" stop-color="#bbbdc1"></stop></linearGradient><linearGradient gradientUnits="objectBoundingBox" id="linearGradient-18" node-id="56" spreadMethod="pad" x1="0.5000539" x2="0.5000539" y1="-0.00016478778" y2="1.0003543"><stop offset="0" stop-color="#eff0f1"></stop><stop offset="1" stop-color="#bbbdc1"></stop></linearGradient><linearGradient gradientUnits="objectBoundingBox" id="linearGradient-19" node-id="59" spreadMethod="pad" x1="0.54056984" x2="0.45896983" y1="-0.23820953" y2="1.2252905"><stop offset="0" stop-color="#bcbec1"></stop><stop offset="1" stop-color="#f3f4f4"></stop></linearGradient><linearGradient gradientUnits="objectBoundingBox" id="linearGradient-20" node-id="62" spreadMethod="pad" x1="0.00606669" x2="0.70812964" y1="0.4992527" y2="-0.20281029"><stop offset="0" stop-color="#ffffff"></stop><stop offset="1" stop-color="#ffffff" stop-opacity="0.4778"></stop></linearGradient></defs><g node-id="228"><g node-id="229"><g node-id="230"><path d="M 0.00 0.00 L 1080.00 0.00 L 1080.00 1080.00 L 0.00 1080.00 Z" fill="#ffffff" fill-opacity="0" fill-rule="nonzero" group-id="1,2,3" id="矩形" node-id="69" stroke="none" target-height="1080" target-width="1080" target-x="0" target-y="0"></path><g node-id="232"><path d="M 688.50 881.70 C 688.50 889.98 622.01 896.70 540.00 896.70 C 457.99 896.70 391.50 889.98 391.50 881.70 C 391.50 873.42 457.99 866.70 540.00 866.70 C 622.01 866.70 688.50 873.42 688.50 881.70 Z" fill="url(#linearGradient-1)" fill-opacity="0.2979" fill-rule="nonzero" group-id="1,2,3,5" id="椭圆形" node-id="70" stroke="none" target-height="30" target-width="297" target-x="391.5" target-y="866.7"></path></g><g node-id="233"><g node-id="240"><path d="M 232.20 668.10 L 231.96 668.99 L 231.24 669.88 L 229.82 670.83 L 227.28 671.86 L 223.58 672.76 L 219.54 673.30 L 214.80 673.50 L 210.06 673.30 L 206.02 672.76 L 202.32 671.86 L 199.78 670.83 L 198.36 669.88 L 197.64 668.99 L 197.40 668.10 L 197.64 667.21 L 198.36 666.32 L 199.78 665.37 L 202.32 664.34 L 206.02 663.44 L 210.06 662.90 L 214.80 662.70 L 219.54 662.90 L 223.58 663.44 L 227.28 664.34 L 229.82 665.37 L 231.24 666.32 L 231.96 667.21 L 232.20 668.10 Z" fill="#9da0a6" fill-opacity="0.42003423" fill-rule="nonzero" group-id="1,2,3,6,13" id="椭圆形_1_" node-id="72" stroke="none" target-height="10.799988" target-width="34.800003" target-x="197.4" target-y="662.7"></path></g><g node-id="241"><path d="M 199.50 668.10 L 200.29 668.14 L 201.47 667.63 L 203.27 666.23 L 205.82 663.62 L 209.07 659.73 L 212.32 655.41 L 215.81 650.44 L 222.43 640.17 L 225.44 635.11 L 227.85 630.75 L 229.90 626.67 L 231.00 624.00 L 231.85 620.72 L 232.21 617.50 L 232.10 614.32 L 231.53 611.19 L 230.56 608.36 L 229.20 605.78 L 227.43 603.49 L 225.34 601.67 L 222.90 600.30 L 220.23 599.51 L 217.60 599.30 L 214.96 599.67 L 212.42 600.55 L 210.03 601.92 L 207.74 603.83 L 205.80 606.10 L 204.15 608.80 L 202.80 612.00 L 202.01 614.87 L 201.06 619.45 L 199.34 630.48 L 198.00 642.98 L 197.56 649.23 L 197.36 654.82 L 197.41 660.08 L 197.74 663.90 L 198.25 666.27 L 198.86 667.53 L 199.50 668.10 Z" fill="url(#linearGradient-2)" fill-opacity="0.40439165" fill-rule="nonzero" group-id="1,2,3,6,14" id="椭圆形_2_" node-id="73" stroke="none" target-height="68.835815" target-width="34.85666" target-x="197.35556" target-y="599.3003"></path></g><path d="M 200.40 668.10 L 201.09 667.63 L 201.82 666.55 L 202.56 664.52 L 203.31 661.16 L 203.97 656.39 L 204.40 651.25 L 204.69 645.29 L 204.82 632.79 L 204.45 620.47 L 203.64 609.91 L 203.07 605.54 L 202.50 602.70 L 201.21 598.88 L 199.53 595.57 L 197.47 592.70 L 194.99 590.19 L 192.32 588.28 L 189.43 586.90 L 187.13 586.24 L 184.81 585.95 L 182.44 586.03 L 180.00 586.50 L 177.68 587.38 L 175.59 588.56 L 173.71 590.05 L 172.02 591.87 L 170.17 594.61 L 168.76 597.72 L 167.78 601.23 L 167.32 604.86 L 167.38 608.64 L 168.00 612.60 L 168.81 615.36 L 170.33 619.45 L 174.55 629.03 L 180.00 639.92 L 185.98 650.70 L 189.04 655.71 L 191.83 659.93 L 194.63 663.71 L 196.86 666.21 L 198.45 667.55 L 199.58 668.08 L 200.40 668.10 Z" fill="url(#linearGradient-3)" fill-opacity="0.70145994" fill-rule="nonzero" group-id="1,2,3,6" id="椭圆形_3_" node-id="74" stroke="none" target-height="82.14917" target-width="37.50464" target-x="167.31752" target-y="585.95087"></path></g><g node-id="234"><path d="M 255.30 245.70 C 254.10 245.70 252.90 245.70 251.70 245.40 C 250.20 245.70 248.70 245.70 247.20 245.70 C 224.10 245.70 205.50 227.10 205.50 203.70 C 205.50 180.30 223.80 162.00 246.90 162.00 C 249.60 162.00 252.30 162.30 254.70 162.60 C 264.30 144.60 283.20 132.30 305.10 132.30 C 336.30 132.30 361.80 157.80 361.80 189.00 L 361.80 189.00 L 395.70 189.00 C 411.30 189.00 423.90 201.60 423.90 217.20 C 423.90 232.80 411.30 245.70 395.70 245.70 L 255.30 245.70 Z" fill="url(#linearGradient-4)" fill-opacity="0.63" fill-rule="nonzero" group-id="1,2,3,7" id="形状结合" node-id="75" stroke="none" target-height="113.399994" target-width="218.4" target-x="205.5" target-y="132.3"></path></g><g node-id="235"><path d="M 108.00 799.20 L 117.56 785.61 L 126.83 773.28 L 135.81 762.15 L 144.51 752.13 L 152.95 743.16 L 161.13 735.16 L 169.07 728.07 L 176.78 721.84 L 184.81 716.02 L 192.61 711.06 L 200.20 706.88 L 207.59 703.45 L 214.81 700.71 L 221.88 698.62 L 228.81 697.16 L 235.65 696.29 L 242.40 696.00 L 249.08 696.28 L 255.93 697.13 L 262.99 698.57 L 270.27 700.63 L 277.81 703.35 L 285.62 706.78 L 293.74 710.96 L 302.19 715.96 L 310.99 721.84 L 319.41 728.07 L 328.16 735.15 L 337.28 743.15 L 346.76 752.13 L 356.64 762.15 L 366.93 773.29 L 377.64 785.61 L 388.80 799.20 L 108.00 799.20 Z" fill="url(#linearGradient-5)" fill-opacity="0.9" fill-rule="nonzero" group-id="1,2,3,8" id="路径" node-id="77" stroke="none" target-height="103.19995" target-width="280.8" target-x="108" target-y="696"></path><path d="M 274.20 799.20 L 283.21 782.76 L 292.09 767.69 L 300.82 753.91 L 309.42 741.36 L 317.88 729.96 L 326.21 719.63 L 334.41 710.32 L 342.48 701.96 L 350.43 694.50 L 358.27 687.88 L 366.01 682.04 L 373.66 676.95 L 381.22 672.55 L 388.72 668.81 L 396.16 665.70 L 403.57 663.19 L 410.96 661.26 L 418.34 659.89 L 425.75 659.07 L 433.20 658.80 L 441.30 659.10 L 450.35 660.04 L 460.46 661.72 L 471.73 664.20 L 484.26 667.61 L 498.17 672.02 L 513.58 677.56 L 530.60 684.35 L 549.35 692.50 L 569.98 702.14 L 592.62 713.40 L 617.40 726.43 L 644.48 741.38 L 674.00 758.38 L 706.12 777.60 L 741.00 799.20 L 274.20 799.20 Z" fill="none" group-id="1,2,3,8" id="路径-2" node-id="78" stroke="none" target-height="140.39996" target-width="466.8" target-x="274.2" target-y="658.8"></path><path d="M 972.00 799.20 L 961.47 784.72 L 951.28 771.60 L 941.43 759.74 L 931.90 749.08 L 922.67 739.53 L 913.74 731.02 L 905.09 723.48 L 896.70 716.85 L 887.96 710.66 L 879.49 705.38 L 871.28 700.94 L 863.29 697.30 L 855.50 694.39 L 847.89 692.17 L 840.44 690.62 L 833.12 689.70 L 825.90 689.40 L 818.67 689.69 L 810.72 690.59 L 801.98 692.18 L 792.37 694.53 L 781.82 697.72 L 770.24 701.85 L 757.55 707.01 L 743.66 713.32 L 728.48 720.86 L 711.91 729.78 L 693.86 740.17 L 674.23 752.18 L 652.92 765.93 L 629.81 781.55 L 604.80 799.20 L 972.00 799.20 Z" fill="none" group-id="1,2,3,8" id="路径-3" node-id="79" stroke="none" target-height="109.79999" target-width="367.2" target-x="604.8" target-y="689.39996"></path></g><g node-id="236"><g node-id="242"><path d="M 823.50 595.20 L 823.31 595.89 L 822.75 596.59 L 821.66 597.32 L 819.68 598.13 L 816.81 598.83 L 813.68 599.24 L 810.00 599.40 L 806.32 599.24 L 803.19 598.83 L 800.32 598.13 L 798.34 597.32 L 797.25 596.59 L 796.69 595.89 L 796.50 595.20 L 796.69 594.51 L 797.25 593.81 L 798.34 593.08 L 800.32 592.27 L 803.19 591.57 L 806.32 591.16 L 810.00 591.00 L 813.68 591.16 L 816.81 591.57 L 819.68 592.27 L 821.66 593.08 L 822.75 593.81 L 823.31 594.51 L 823.50 595.20 Z" fill="#9da0a6" fill-opacity="0.60291" fill-rule="nonzero" group-id="1,2,3,9,15" id="椭圆形_4_" node-id="81" stroke="none" target-height="8.400024" target-width="27" target-x="796.5" target-y="591"></path></g><g node-id="243"><path d="M 798.30 595.20 L 798.94 595.22 L 799.88 594.86 L 801.27 593.87 L 803.24 592.00 L 805.73 589.23 L 808.23 586.15 L 810.90 582.60 L 815.97 575.27 L 820.13 568.53 L 821.72 565.62 L 822.60 563.70 L 823.30 561.34 L 823.59 559.05 L 823.51 556.81 L 823.07 554.61 L 822.33 552.61 L 821.29 550.79 L 819.95 549.18 L 818.40 547.89 L 816.60 546.90 L 814.64 546.33 L 812.66 546.19 L 810.62 546.48 L 808.65 547.14 L 806.78 548.14 L 804.98 549.52 L 803.41 551.16 L 802.09 553.08 L 801.00 555.30 L 800.37 557.24 L 799.61 560.44 L 798.30 568.24 L 797.29 577.16 L 796.80 585.66 L 796.83 589.43 L 797.06 592.18 L 797.42 593.89 L 797.85 594.79 L 798.30 595.20 Z" fill="url(#linearGradient-8)" fill-opacity="0.51884997" fill-rule="nonzero" group-id="1,2,3,9,16" id="椭圆形_5_" node-id="82" stroke="none" target-height="49.0318" target-width="26.794006" target-x="796.8" target-y="546.19226"></path></g><path d="M 797.70 595.20 L 798.34 594.79 L 798.99 593.81 L 799.65 591.95 L 800.27 588.86 L 800.77 584.57 L 801.05 579.98 L 801.19 574.84 L 801.03 564.53 L 800.43 555.43 L 799.96 551.65 L 799.50 549.30 L 798.57 546.67 L 797.29 544.34 L 795.66 542.27 L 793.72 540.47 L 791.62 539.07 L 789.34 538.03 L 786.94 537.41 L 784.54 537.27 L 782.10 537.60 L 779.80 538.45 L 777.79 539.69 L 776.02 541.34 L 774.57 543.30 L 773.46 545.49 L 772.68 547.96 L 772.29 550.51 L 772.33 553.15 L 772.80 555.90 L 773.56 558.17 L 775.06 561.71 L 779.19 569.96 L 784.35 579.04 L 787.11 583.47 L 789.71 587.34 L 792.33 590.86 L 794.44 593.27 L 795.95 594.60 L 796.98 595.14 L 797.70 595.20 Z" fill="url(#linearGradient-9)" fill-opacity="0.9" fill-rule="nonzero" group-id="1,2,3,9" id="椭圆形_6_" node-id="83" stroke="none" target-height="57.93341" target-width="28.893127" target-x="772.2944" target-y="537.2666"></path></g><g node-id="237"><g node-id="244"><path d="M 870.60 885.60 L 870.36 886.48 L 869.62 887.38 L 868.18 888.33 L 865.59 889.36 L 861.83 890.26 L 857.72 890.80 L 852.90 891.00 L 848.08 890.80 L 843.97 890.26 L 840.21 889.36 L 837.62 888.33 L 836.18 887.38 L 835.44 886.48 L 835.20 885.60 L 835.44 884.72 L 836.18 883.82 L 837.62 882.87 L 840.21 881.84 L 843.97 880.94 L 848.08 880.40 L 852.90 880.20 L 857.72 880.40 L 861.83 880.94 L 865.59 881.84 L 868.18 882.87 L 869.62 883.82 L 870.36 884.72 L 870.60 885.60 Z" fill="#9da0a6" fill-opacity="0.48182362" fill-rule="nonzero" group-id="1,2,3,10,17" id="椭圆形_7_" node-id="85" stroke="none" target-height="10.799988" target-width="35.399963" target-x="835.2" target-y="880.2"></path></g><g node-id="245"><path d="M 840.30 886.50 L 841.19 886.56 L 842.47 886.12 L 844.32 884.91 L 846.99 882.58 L 850.42 879.01 L 853.87 874.98 L 857.70 870.17 L 861.50 865.12 L 865.32 859.79 L 872.39 849.22 L 878.04 839.87 L 880.17 835.84 L 881.40 833.10 L 882.57 829.09 L 883.07 825.20 L 882.94 821.38 L 882.21 817.62 L 880.95 814.22 L 879.16 811.12 L 877.46 809.03 L 875.54 807.26 L 873.36 805.78 L 870.90 804.60 L 868.28 803.84 L 865.69 803.48 L 863.12 803.50 L 860.52 803.92 L 857.19 805.02 L 854.06 806.69 L 851.08 808.98 L 848.50 811.71 L 846.30 814.93 L 844.50 818.70 L 843.59 821.56 L 842.52 826.01 L 841.56 830.93 L 840.60 836.84 L 838.97 849.54 L 838.35 856.13 L 837.89 862.49 L 837.62 868.69 L 837.59 874.06 L 837.83 879.05 L 838.31 882.60 L 838.92 884.76 L 839.59 885.95 L 840.30 886.50 Z" fill="url(#linearGradient-10)" fill-opacity="0.46535656" fill-rule="nonzero" group-id="1,2,3,10,18" id="椭圆形_8_" node-id="86" stroke="none" target-height="83.08063" target-width="45.4823" target-x="837.5904" target-y="803.4764"></path></g><path d="M 840.30 886.80 L 841.25 886.23 L 842.23 884.93 L 843.22 882.54 L 844.24 878.52 L 845.12 872.83 L 845.71 866.69 L 846.11 859.56 L 846.30 852.23 L 846.31 844.63 L 846.14 837.06 L 845.83 829.93 L 845.35 823.07 L 844.79 817.36 L 844.04 812.16 L 843.30 808.80 L 842.11 805.42 L 840.59 802.30 L 838.74 799.42 L 836.56 796.78 L 834.18 794.47 L 831.56 792.49 L 828.73 790.84 L 825.80 789.60 L 822.75 788.76 L 819.63 788.36 L 816.49 788.44 L 813.30 789.00 L 810.24 790.06 L 807.49 791.50 L 805.00 793.33 L 802.79 795.50 L 800.90 797.95 L 799.31 800.70 L 798.09 803.64 L 797.22 806.76 L 796.72 810.09 L 796.62 813.47 L 796.94 816.92 L 797.70 820.50 L 798.82 823.82 L 800.86 828.72 L 803.32 833.98 L 806.43 840.18 L 809.82 846.52 L 813.55 853.18 L 817.45 859.76 L 821.36 866.03 L 825.35 872.00 L 828.99 877.04 L 832.66 881.54 L 835.59 884.53 L 837.68 886.12 L 839.18 886.77 L 840.30 886.80 Z" fill="url(#linearGradient-11)" fill-opacity="0.80720997" fill-rule="nonzero" group-id="1,2,3,10" id="椭圆形_9_" node-id="87" stroke="none" target-height="98.44177" target-width="49.684937" target-x="796.6221" target-y="788.3582"></path></g></g><g node-id="231"><g node-id="238"><path d="M 378.90 586.30 L 382.85 586.59 L 386.57 587.38 L 390.10 588.67 L 393.44 590.42 L 396.48 592.56 L 399.26 595.11 L 401.69 598.00 L 403.75 601.17 L 405.43 604.65 L 406.66 608.32 L 407.42 612.19 L 407.70 616.30 L 407.42 620.41 L 406.66 624.28 L 405.43 627.95 L 403.75 631.44 L 401.69 634.61 L 399.26 637.49 L 396.48 640.04 L 393.44 642.18 L 390.10 643.93 L 386.57 645.22 L 382.85 646.01 L 378.90 646.30 L 374.95 646.01 L 371.22 645.22 L 367.69 643.93 L 364.35 642.18 L 361.31 640.04 L 358.53 637.49 L 356.10 634.61 L 354.05 631.44 L 352.36 627.95 L 351.13 624.28 L 350.37 620.41 L 350.10 616.30 L 350.37 612.19 L 351.13 608.32 L 352.36 604.65 L 354.05 601.17 L 356.10 598.00 L 358.53 595.11 L 361.31 592.56 L 364.35 590.42 L 367.69 588.67 L 371.22 587.38 L 374.95 586.59 L 378.90 586.30 Z M 380.40 502.00 L 387.67 502.26 L 394.76 503.00 L 401.69 504.21 L 408.47 505.90 L 415.15 508.04 L 421.58 510.60 L 427.79 513.57 L 433.80 516.96 L 439.56 520.75 L 445.02 524.90 L 450.18 529.40 L 455.07 534.27 L 459.60 539.47 L 463.76 544.96 L 467.56 550.76 L 471.00 556.90 L 472.16 559.63 L 472.92 562.36 L 473.30 565.12 L 473.32 567.91 L 472.79 571.60 L 471.68 575.08 L 469.97 578.39 L 468.34 580.66 L 466.43 582.68 L 464.23 584.45 L 461.70 586.00 L 458.97 587.17 L 456.26 587.95 L 453.56 588.36 L 450.83 588.41 L 447.22 587.95 L 443.81 586.91 L 440.56 585.29 L 437.63 583.15 L 435.08 580.51 L 432.90 577.30 L 432.60 576.70 L 429.89 572.01 L 426.83 567.68 L 423.43 563.68 L 419.66 560.00 L 415.57 556.68 L 411.23 553.76 L 406.63 551.24 L 401.73 549.10 L 396.68 547.43 L 391.46 546.21 L 386.04 545.47 L 380.40 545.20 L 374.75 545.47 L 369.33 546.21 L 364.11 547.42 L 359.06 549.09 L 354.16 551.22 L 349.55 553.72 L 345.21 556.62 L 341.13 559.91 L 337.36 563.56 L 333.95 567.51 L 330.90 571.78 L 328.20 576.40 L 327.60 577.30 L 326.05 579.91 L 324.28 582.18 L 322.29 584.14 L 320.06 585.80 L 316.79 587.56 L 313.37 588.72 L 309.73 589.30 L 306.96 589.33 L 304.24 589.00 L 301.52 588.29 L 298.80 587.20 L 296.28 585.74 L 294.05 584.02 L 292.10 582.03 L 290.42 579.79 L 289.06 577.40 L 288.00 574.83 L 287.26 572.14 L 286.86 569.41 L 286.81 566.61 L 287.12 563.83 L 287.81 561.10 L 288.90 558.40 L 292.34 552.09 L 296.15 546.13 L 300.32 540.49 L 304.88 535.16 L 309.80 530.15 L 315.00 525.52 L 320.51 521.27 L 326.32 517.38 L 332.38 513.89 L 338.66 510.84 L 345.17 508.21 L 351.92 506.00 L 358.79 504.28 L 365.82 503.03 L 373.01 502.27 L 380.40 502.00 Z M 378.90 429.10 L 388.45 429.37 L 397.83 430.15 L 407.05 431.42 L 416.12 433.19 L 425.10 435.45 L 433.86 438.17 L 442.41 441.33 L 450.75 444.95 L 458.90 449.02 L 466.77 453.48 L 474.37 458.36 L 481.71 463.64 L 488.76 469.31 L 495.47 475.34 L 501.85 481.74 L 507.92 488.51 L 513.60 495.59 L 518.88 502.99 L 523.78 510.72 L 528.30 518.80 L 529.46 521.53 L 530.24 524.26 L 530.65 527.02 L 530.70 529.81 L 530.22 533.51 L 529.15 536.98 L 527.50 540.29 L 525.90 542.56 L 524.01 544.57 L 521.82 546.35 L 519.30 547.90 L 516.56 549.07 L 513.83 549.85 L 511.08 550.26 L 508.28 550.30 L 504.59 549.82 L 501.11 548.76 L 497.81 547.10 L 495.54 545.50 L 493.52 543.62 L 491.75 541.43 L 490.20 538.90 L 485.92 531.44 L 481.22 524.38 L 476.08 517.71 L 470.48 511.41 L 464.47 505.49 L 458.12 500.03 L 451.41 495.01 L 444.33 490.41 L 436.97 486.31 L 429.36 482.71 L 421.47 479.61 L 413.29 477.01 L 404.98 474.98 L 396.49 473.51 L 387.80 472.62 L 378.90 472.30 L 370.04 472.61 L 361.42 473.49 L 353.00 474.92 L 344.77 476.90 L 336.65 479.44 L 328.83 482.47 L 321.28 485.99 L 313.98 490.00 L 306.96 494.49 L 300.29 499.40 L 293.97 504.74 L 287.98 510.52 L 282.40 516.68 L 277.24 523.21 L 272.51 530.11 L 268.20 537.40 L 267.60 538.60 L 265.98 541.14 L 264.16 543.34 L 262.12 545.25 L 259.85 546.87 L 256.55 548.56 L 253.09 549.65 L 249.44 550.13 L 246.68 550.08 L 243.95 549.65 L 241.23 548.83 L 238.50 547.60 L 235.96 545.99 L 233.75 544.16 L 231.85 542.12 L 230.23 539.86 L 228.54 536.55 L 227.45 533.10 L 226.96 529.45 L 227.01 526.69 L 227.44 523.96 L 228.26 521.24 L 229.50 518.50 L 234.01 510.47 L 238.91 502.78 L 244.19 495.41 L 249.87 488.35 L 255.94 481.61 L 262.32 475.24 L 269.03 469.23 L 276.08 463.58 L 283.42 458.31 L 291.02 453.45 L 298.89 448.99 L 307.04 444.93 L 315.38 441.32 L 323.93 438.16 L 332.69 435.45 L 341.67 433.19 L 350.74 431.42 L 359.96 430.15 L 369.34 429.37 L 378.90 429.10 Z" fill="#ccced1" fill-opacity="0.9" fill-rule="nonzero" group-id="1,2,4,11" id="形状结合_1_" node-id="90" stroke="none" target-height="217.20001" target-width="303.73325" target-x="226.96231" target-y="429.1015"></path></g><g node-id="239"><g node-id="246"><g node-id="248"><g node-id="256"><path d="M 426.83 329.40 L 618.83 329.40 L 623.79 329.67 L 628.54 330.39 L 633.09 331.57 L 637.47 333.19 L 641.69 335.24 L 645.63 337.63 L 649.31 340.38 L 652.73 343.50 L 655.85 346.93 L 658.60 350.60 L 660.99 354.54 L 663.04 358.76 L 664.67 363.15 L 665.84 367.70 L 666.56 372.44 L 666.83 377.40 L 666.83 753.60 L 666.56 758.56 L 665.84 763.30 L 664.67 767.86 L 663.04 772.24 L 660.99 776.46 L 658.60 780.40 L 655.85 784.07 L 652.73 787.50 L 649.31 790.62 L 645.63 793.37 L 641.69 795.76 L 637.47 797.81 L 633.09 799.43 L 628.54 800.61 L 623.79 801.33 L 618.83 801.60 L 426.83 801.60 L 421.87 801.33 L 417.13 800.61 L 412.58 799.43 L 408.19 797.81 L 403.97 795.76 L 400.03 793.37 L 396.36 790.62 L 392.93 787.50 L 389.82 784.07 L 387.07 780.40 L 384.67 776.46 L 382.62 772.24 L 381.00 767.86 L 379.82 763.30 L 379.10 758.56 L 378.83 753.60 L 378.83 377.40 L 379.10 372.44 L 379.82 367.70 L 381.00 363.14 L 382.62 358.76 L 384.67 354.54 L 387.07 350.60 L 389.82 346.93 L 392.93 343.50 L 396.36 340.38 L 400.03 337.63 L 403.97 335.24 L 408.19 333.19 L 412.58 331.57 L 417.13 330.39 L 421.87 329.67 L 426.83 329.40 Z" fill="url(#linearGradient-12)" fill-opacity="0.9" fill-rule="nonzero" group-id="1,2,4,12,19,21,29" id="path-17" node-id="95" stroke="none" target-height="472.19998" target-width="288" target-x="378.83173" target-y="329.4"></path></g><path d="M 426.83 334.80 L 618.83 334.80 L 623.79 335.07 L 628.54 335.79 L 633.09 336.97 L 637.47 338.59 L 641.69 340.64 L 645.63 343.03 L 649.31 345.78 L 652.73 348.90 L 655.85 352.33 L 658.60 356.00 L 660.99 359.94 L 663.04 364.16 L 664.67 368.54 L 665.84 373.10 L 666.56 377.84 L 666.83 382.80 L 666.83 759.00 L 666.56 763.96 L 665.84 768.70 L 664.67 773.25 L 663.04 777.64 L 660.99 781.86 L 658.60 785.80 L 655.85 789.47 L 652.73 792.90 L 649.31 796.02 L 645.63 798.77 L 641.69 801.16 L 637.47 803.21 L 633.09 804.83 L 628.54 806.01 L 623.79 806.73 L 618.83 807.00 L 426.83 807.00 L 421.87 806.73 L 417.13 806.01 L 412.58 804.83 L 408.19 803.21 L 403.97 801.16 L 400.03 798.77 L 396.36 796.02 L 392.93 792.90 L 389.82 789.47 L 387.07 785.80 L 384.67 781.86 L 382.62 777.64 L 381.00 773.25 L 379.82 768.70 L 379.10 763.96 L 378.83 759.00 L 378.83 382.80 L 379.10 377.84 L 379.82 373.10 L 381.00 368.54 L 382.62 364.16 L 384.67 359.94 L 387.07 356.00 L 389.82 352.33 L 392.93 348.90 L 396.36 345.78 L 400.03 343.03 L 403.97 340.64 L 408.19 338.59 L 412.58 336.97 L 417.13 335.79 L 421.87 335.07 L 426.83 334.80 Z" fill="url(#linearGradient-13)" fill-opacity="0.9" fill-rule="nonzero" group-id="1,2,4,12,19,21,30" id="矩形_1_" node-id="97" stroke="none" target-height="472.2" target-width="288" target-x="378.83173" target-y="334.8"></path></g><path d="M 425.93 350.10 L 621.83 350.10 L 625.11 350.33 L 628.21 350.96 L 631.15 351.99 L 633.93 353.40 L 636.47 355.11 L 638.78 357.15 L 640.82 359.46 L 642.53 362.00 L 643.94 364.78 L 644.97 367.72 L 645.60 370.82 L 645.83 374.10 L 645.83 754.20 L 645.60 757.48 L 644.97 760.58 L 643.94 763.52 L 642.53 766.30 L 640.82 768.84 L 638.78 771.15 L 636.47 773.19 L 633.93 774.90 L 631.15 776.31 L 628.21 777.34 L 625.11 777.97 L 621.83 778.20 L 425.93 778.20 L 422.65 777.97 L 419.55 777.34 L 416.61 776.31 L 413.83 774.90 L 411.29 773.19 L 408.98 771.15 L 406.95 768.84 L 405.23 766.30 L 403.83 763.52 L 402.79 760.58 L 402.16 757.48 L 401.93 754.20 L 401.93 374.10 L 402.16 370.82 L 402.79 367.72 L 403.83 364.78 L 405.23 362.00 L 406.95 359.46 L 408.98 357.15 L 411.29 355.11 L 413.83 353.40 L 416.61 351.99 L 419.55 350.96 L 422.65 350.33 L 425.93 350.10 Z" fill="url(#linearGradient-14)" fill-opacity="0.9" fill-rule="nonzero" group-id="1,2,4,12,19" id="矩形_2_" node-id="98" stroke="none" target-height="428.09995" target-width="243.9" target-x="401.93173" target-y="350.1"></path><path d="M 425.93 355.50 L 621.83 355.50 L 625.11 355.73 L 628.21 356.36 L 631.15 357.39 L 633.93 358.80 L 636.47 360.51 L 638.78 362.55 L 640.82 364.86 L 642.53 367.40 L 643.94 370.18 L 644.97 373.12 L 645.60 376.22 L 645.83 379.50 L 645.83 754.20 L 645.60 757.48 L 644.97 760.58 L 643.94 763.52 L 642.53 766.30 L 640.82 768.84 L 638.78 771.15 L 636.47 773.19 L 633.93 774.90 L 631.15 776.31 L 628.21 777.34 L 625.11 777.97 L 621.83 778.20 L 425.93 778.20 L 422.65 777.97 L 419.55 777.34 L 416.61 776.31 L 413.83 774.90 L 411.29 773.19 L 408.98 771.15 L 406.95 768.84 L 405.23 766.30 L 403.83 763.52 L 402.79 760.58 L 402.16 757.48 L 401.93 754.20 L 401.93 379.50 L 402.16 376.22 L 402.79 373.12 L 403.83 370.18 L 405.23 367.40 L 406.95 364.86 L 408.98 362.55 L 411.29 360.51 L 413.83 358.80 L 416.61 357.39 L 419.55 356.36 L 422.65 355.73 L 425.93 355.50 Z" fill="url(#linearGradient-15)" fill-opacity="0.9" fill-rule="nonzero" group-id="1,2,4,12,19" id="矩形备份-13" node-id="99" stroke="none" target-height="422.69995" target-width="243.9" target-x="401.93173" target-y="355.5"></path><path d="M 449.33 449.40 L 600.53 449.40 L 604.30 449.75 L 607.79 450.70 L 611.04 452.24 L 614.00 454.32 L 616.51 456.81 L 618.62 459.76 L 619.86 462.17 L 620.76 464.74 L 621.32 467.47 L 621.53 470.40 L 621.53 470.40 L 621.18 474.17 L 620.23 477.66 L 618.69 480.91 L 616.61 483.86 L 614.12 486.38 L 611.18 488.49 L 608.76 489.73 L 606.20 490.62 L 603.46 491.18 L 600.53 491.40 L 449.33 491.40 L 445.56 491.05 L 442.08 490.10 L 438.82 488.56 L 435.87 486.48 L 433.35 483.99 L 431.24 481.04 L 430.01 478.63 L 429.11 476.06 L 428.55 473.33 L 428.33 470.40 L 428.33 470.40 L 428.54 467.47 L 429.09 464.73 L 429.97 462.17 L 431.18 459.76 L 433.25 456.81 L 435.74 454.32 L 438.69 452.24 L 441.10 451.03 L 443.66 450.16 L 446.40 449.61 L 449.33 449.40 Z" fill="#e6e6e8" fill-opacity="0.60138" fill-rule="nonzero" group-id="1,2,4,12,19,22" id="矩形_3_" node-id="100" stroke="none" target-height="42" target-width="193.20001" target-x="428.33173" target-y="449.4"></path><path d="M 475.13 479.40 L 478.13 477.00 L 473.03 471.00 L 480.53 468.90 L 479.33 465.30 L 472.13 468.30 L 472.73 460.50 L 468.83 460.50 L 469.43 468.30 L 462.23 465.30 L 461.03 468.90 L 468.53 471.00 L 463.43 477.00 L 466.43 479.40 L 470.93 472.80 L 475.13 479.40 Z M 497.33 479.40 L 500.33 477.00 L 495.23 471.00 L 502.73 468.90 L 501.83 465.30 L 494.63 468.30 L 495.23 460.50 L 491.33 460.50 L 491.93 468.30 L 484.73 465.30 L 483.53 468.90 L 491.03 471.00 L 485.93 477.00 L 488.93 479.40 L 493.43 472.80 L 497.33 479.40 Z M 519.53 479.40 L 522.53 477.00 L 517.43 471.00 L 524.93 468.90 L 523.73 465.30 L 516.53 468.30 L 517.13 460.50 L 513.23 460.50 L 513.83 468.30 L 506.63 465.30 L 505.43 468.90 L 512.93 471.00 L 507.83 477.00 L 510.83 479.40 L 515.33 472.80 L 519.53 479.40 Z M 541.73 479.40 L 544.73 477.00 L 539.63 471.00 L 547.13 468.90 L 545.93 465.30 L 538.73 468.30 L 539.33 460.50 L 535.43 460.50 L 536.03 468.30 L 528.83 465.30 L 527.63 468.90 L 535.13 471.00 L 530.03 477.00 L 533.03 479.40 L 537.53 472.80 L 541.73 479.40 Z M 563.93 479.40 L 566.93 477.00 L 561.83 471.00 L 569.33 468.90 L 568.13 465.30 L 560.93 468.30 L 561.53 460.50 L 557.63 460.50 L 558.23 468.30 L 551.03 465.30 L 549.83 468.90 L 557.33 471.00 L 552.23 477.00 L 555.23 479.40 L 559.73 472.80 L 563.93 479.40 Z M 586.13 479.40 L 589.13 477.00 L 584.03 471.00 L 591.53 468.90 L 590.33 465.30 L 583.13 468.30 L 583.73 460.50 L 579.83 460.50 L 580.43 468.30 L 573.23 465.30 L 572.03 468.90 L 579.53 471.00 L 574.43 477.00 L 577.43 479.40 L 581.93 472.80 L 586.13 479.40 Z" fill="#ccced1" fill-opacity="0.74223" fill-rule="nonzero" group-id="1,2,4,12,19,23" id="_x2A__x2A__x2A__x2A__x2A__x2A_" node-id="101" stroke="none" target-height="18.899994" target-width="130.5" target-x="461.03174" target-y="460.5"></path><path d="M 449.33 506.70 L 600.53 506.70 L 604.30 507.05 L 607.79 508.00 L 611.04 509.54 L 614.00 511.62 L 616.51 514.11 L 618.62 517.06 L 619.86 519.47 L 620.76 522.04 L 621.32 524.77 L 621.53 527.70 L 621.53 527.70 L 621.18 531.47 L 620.23 534.96 L 618.69 538.21 L 616.61 541.16 L 614.12 543.68 L 611.18 545.79 L 608.76 547.03 L 606.20 547.92 L 603.46 548.48 L 600.53 548.70 L 449.33 548.70 L 445.56 548.35 L 442.08 547.40 L 438.82 545.86 L 435.87 543.78 L 433.35 541.29 L 431.24 538.34 L 430.01 535.93 L 429.11 533.36 L 428.55 530.63 L 428.33 527.70 L 428.33 527.70 L 428.54 524.77 L 429.09 522.03 L 429.97 519.47 L 431.18 517.06 L 433.25 514.11 L 435.74 511.62 L 438.69 509.54 L 441.10 508.33 L 443.66 507.46 L 446.40 506.91 L 449.33 506.70 Z" fill="#e6e6e8" fill-opacity="0.60138" fill-rule="nonzero" group-id="1,2,4,12,19,24" id="矩形备份" node-id="102" stroke="none" target-height="42" target-width="193.20001" target-x="428.33173" target-y="506.7"></path><path d="M 497.33 536.70 L 500.33 534.30 L 495.23 528.30 L 502.73 526.20 L 501.83 522.60 L 494.63 525.60 L 495.23 517.80 L 491.33 517.80 L 491.93 525.60 L 484.73 522.60 L 483.53 526.20 L 491.03 528.30 L 485.93 534.30 L 488.93 536.70 L 493.43 530.10 L 497.33 536.70 Z M 519.53 536.70 L 522.53 534.30 L 517.43 528.30 L 524.93 526.20 L 523.73 522.60 L 516.53 525.60 L 517.13 517.80 L 513.23 517.80 L 513.83 525.60 L 506.63 522.60 L 505.43 526.20 L 512.93 528.30 L 507.83 534.30 L 510.83 536.70 L 515.33 530.10 L 519.53 536.70 Z M 541.73 536.70 L 544.73 534.30 L 539.63 528.30 L 547.13 526.20 L 545.93 522.60 L 538.73 525.60 L 539.33 517.80 L 535.43 517.80 L 536.03 525.60 L 528.83 522.60 L 527.63 526.20 L 535.13 528.30 L 530.03 534.30 L 533.03 536.70 L 537.53 530.10 L 541.73 536.70 Z M 563.93 536.70 L 566.93 534.30 L 561.83 528.30 L 569.33 526.20 L 568.13 522.60 L 560.93 525.60 L 561.53 517.80 L 557.63 517.80 L 558.23 525.60 L 551.03 522.60 L 549.83 526.20 L 557.33 528.30 L 552.23 534.30 L 555.23 536.70 L 559.73 530.10 L 563.93 536.70 Z" fill="#ccced1" fill-opacity="0.74223" fill-rule="nonzero" group-id="1,2,4,12,19,25" id="_x2A__x2A__x2A__x2A_" node-id="103" stroke="none" target-height="18.900024" target-width="85.79999" target-x="483.53174" target-y="517.8"></path><path d="M 449.03 612.60 L 599.33 612.60 L 602.27 612.81 L 605.00 613.36 L 607.56 614.23 L 609.98 615.44 L 612.92 617.52 L 615.41 620.01 L 617.49 622.96 L 618.70 625.37 L 619.58 627.93 L 620.12 630.67 L 620.33 633.60 L 620.33 633.60 L 620.12 636.53 L 619.58 639.27 L 618.70 641.83 L 617.49 644.24 L 615.41 647.19 L 612.92 649.68 L 609.98 651.76 L 607.56 652.97 L 605.00 653.84 L 602.27 654.39 L 599.33 654.60 L 449.03 654.60 L 446.10 654.39 L 443.36 653.84 L 440.80 652.97 L 438.39 651.76 L 435.44 649.68 L 432.95 647.19 L 430.88 644.24 L 429.67 641.83 L 428.79 639.27 L 428.24 636.53 L 428.03 633.60 L 428.03 633.60 L 428.48 629.74 L 429.49 626.21 L 431.08 622.96 L 433.18 620.01 L 435.67 617.52 L 438.59 615.44 L 440.98 614.23 L 443.50 613.35 L 446.18 612.81 L 449.03 612.60 Z" fill="url(#linearGradient-16)" fill-opacity="0.9" fill-rule="nonzero" group-id="1,2,4,12,19" id="矩形备份-2" node-id="104" stroke="none" target-height="42" target-width="192.29999" target-x="428.03174" target-y="612.6"></path></g><g node-id="247"><g node-id="253"><g node-id="258"><path d="M 787.64 685.84 L 787.36 694.00 L 786.55 701.93 L 785.24 709.65 L 783.43 717.19 L 781.11 724.61 L 778.36 731.77 L 775.17 738.68 L 771.54 745.35 L 767.49 751.78 L 763.07 757.90 L 758.28 763.70 L 753.11 769.21 L 747.60 774.38 L 741.80 779.17 L 735.68 783.59 L 729.25 787.65 L 722.58 791.27 L 715.67 794.46 L 708.51 797.21 L 701.08 799.53 L 693.55 801.35 L 685.83 802.66 L 677.90 803.46 L 669.74 803.74 L 661.58 803.46 L 653.65 802.66 L 645.93 801.35 L 638.40 799.53 L 630.97 797.21 L 623.81 794.46 L 616.91 791.27 L 610.24 787.65 L 603.80 783.59 L 597.69 779.17 L 591.88 774.38 L 586.37 769.21 L 581.20 763.70 L 576.41 757.90 L 571.99 751.78 L 567.94 745.35 L 564.31 738.68 L 561.12 731.77 L 558.37 724.61 L 556.05 717.19 L 554.24 709.65 L 552.93 701.93 L 552.13 694.00 L 551.84 685.84 L 552.13 677.69 L 552.93 669.76 L 554.24 662.03 L 556.05 654.50 L 558.37 647.07 L 561.12 639.91 L 564.31 633.01 L 567.94 626.34 L 571.99 619.90 L 576.41 613.79 L 581.20 607.98 L 586.37 602.48 L 591.88 597.31 L 597.69 592.52 L 603.80 588.10 L 610.24 584.04 L 616.91 580.41 L 623.81 577.22 L 630.97 574.47 L 638.40 572.16 L 645.93 570.34 L 653.65 569.03 L 661.58 568.23 L 669.74 567.94 L 677.90 568.23 L 685.83 569.03 L 693.55 570.34 L 701.08 572.16 L 708.51 574.47 L 715.67 577.22 L 722.58 580.41 L 729.25 584.04 L 735.68 588.10 L 741.80 592.52 L 747.60 597.31 L 753.11 602.48 L 758.28 607.98 L 763.07 613.79 L 767.49 619.90 L 771.54 626.34 L 775.17 633.01 L 778.36 639.91 L 781.11 647.07 L 783.43 654.50 L 785.24 662.03 L 786.55 669.76 L 787.36 677.69 L 787.64 685.84 Z" fill="url(#linearGradient-17)" fill-opacity="0.9" fill-rule="nonzero" group-id="1,2,4,12,20,26,31" id="path-24" node-id="108" stroke="none" target-height="235.79999" target-width="235.79999" target-x="551.84143" target-y="567.94366"></path></g><path d="M 787.64 691.24 L 787.36 699.40 L 786.55 707.33 L 785.24 715.05 L 783.43 722.59 L 781.11 730.01 L 778.36 737.17 L 775.17 744.08 L 771.54 750.75 L 767.49 757.18 L 763.07 763.30 L 758.28 769.10 L 753.11 774.61 L 747.60 779.78 L 741.80 784.57 L 735.68 788.99 L 729.25 793.05 L 722.58 796.67 L 715.67 799.86 L 708.51 802.61 L 701.08 804.93 L 693.55 806.75 L 685.83 808.06 L 677.90 808.86 L 669.74 809.14 L 661.58 808.86 L 653.65 808.06 L 645.93 806.75 L 638.40 804.93 L 630.97 802.61 L 623.81 799.86 L 616.91 796.67 L 610.24 793.05 L 603.80 788.99 L 597.69 784.57 L 591.88 779.78 L 586.37 774.61 L 581.20 769.10 L 576.41 763.30 L 571.99 757.18 L 567.94 750.75 L 564.31 744.08 L 561.12 737.17 L 558.37 730.01 L 556.05 722.59 L 554.24 715.05 L 552.93 707.33 L 552.13 699.40 L 551.84 691.24 L 552.13 683.09 L 552.93 675.16 L 554.24 667.43 L 556.05 659.90 L 558.37 652.47 L 561.12 645.31 L 564.31 638.41 L 567.94 631.74 L 571.99 625.30 L 576.41 619.19 L 581.20 613.38 L 586.37 607.88 L 591.88 602.71 L 597.69 597.92 L 603.80 593.50 L 610.24 589.44 L 616.91 585.81 L 623.81 582.62 L 630.97 579.87 L 638.40 577.56 L 645.93 575.74 L 653.65 574.43 L 661.58 573.63 L 669.74 573.34 L 677.90 573.63 L 685.83 574.43 L 693.55 575.74 L 701.08 577.56 L 708.51 579.87 L 715.67 582.62 L 722.58 585.81 L 729.25 589.44 L 735.68 593.50 L 741.80 597.92 L 747.60 602.71 L 753.11 607.88 L 758.28 613.38 L 763.07 619.19 L 767.49 625.30 L 771.54 631.74 L 775.17 638.41 L 778.36 645.31 L 781.11 652.47 L 783.43 659.90 L 785.24 667.43 L 786.55 675.16 L 787.36 683.09 L 787.64 691.24 Z" fill="url(#linearGradient-18)" fill-opacity="0.9" fill-rule="nonzero" group-id="1,2,4,12,20,26,32" id="椭圆形_10_" node-id="110" stroke="none" target-height="235.79999" target-width="235.79999" target-x="551.84143" target-y="573.3437"></path></g><g node-id="254"><g node-id="260"><path d="M 761.65 685.96 L 761.33 693.58 L 760.44 700.94 L 758.99 708.06 L 756.98 714.97 L 754.42 721.74 L 751.39 728.17 L 747.91 734.31 L 743.94 740.17 L 739.54 745.72 L 734.77 750.87 L 729.62 755.64 L 724.07 760.05 L 718.21 764.01 L 712.07 767.50 L 705.63 770.52 L 698.87 773.08 L 691.96 775.09 L 684.84 776.54 L 677.48 777.43 L 669.86 777.76 L 662.23 777.43 L 654.87 776.54 L 647.75 775.09 L 640.84 773.08 L 634.08 770.52 L 627.64 767.50 L 621.50 764.01 L 615.64 760.05 L 610.09 755.64 L 604.94 750.87 L 600.17 745.72 L 595.77 740.17 L 591.80 734.31 L 588.32 728.17 L 585.30 721.74 L 582.74 714.97 L 580.73 708.06 L 579.27 700.94 L 578.38 693.58 L 578.06 685.96 L 578.38 678.33 L 579.27 670.97 L 580.73 663.85 L 582.74 656.94 L 585.30 650.18 L 588.32 643.74 L 591.80 637.60 L 595.77 631.74 L 600.17 626.20 L 604.94 621.04 L 610.09 616.27 L 615.64 611.87 L 621.50 607.91 L 627.64 604.42 L 634.08 601.40 L 640.84 598.84 L 647.75 596.83 L 654.87 595.37 L 662.23 594.48 L 669.86 594.16 L 677.48 594.48 L 684.84 595.37 L 691.96 596.83 L 698.87 598.84 L 705.63 601.40 L 712.07 604.42 L 718.21 607.91 L 724.07 611.87 L 729.62 616.27 L 734.77 621.04 L 739.54 626.20 L 743.94 631.74 L 747.91 637.60 L 751.39 643.74 L 754.42 650.18 L 756.98 656.94 L 758.99 663.85 L 760.44 670.97 L 761.33 678.33 L 761.65 685.96 Z" fill="#f5f6f6" fill-opacity="0.9" fill-rule="nonzero" group-id="1,2,4,12,20,27,33" id="path-27" node-id="113" stroke="none" target-height="183.59998" target-width="183.59998" target-x="578.05505" target-y="594.1572"></path></g><path d="M 761.65 677.86 L 761.32 685.71 L 760.40 693.28 L 758.91 700.61 L 756.84 707.73 L 754.20 714.69 L 751.09 721.32 L 747.50 727.64 L 743.42 733.67 L 738.89 739.38 L 733.98 744.68 L 728.67 749.59 L 722.97 754.12 L 716.93 758.20 L 710.61 761.79 L 703.99 764.90 L 697.02 767.54 L 689.91 769.61 L 682.58 771.11 L 675.00 772.02 L 667.15 772.36 L 659.31 772.02 L 651.73 771.11 L 644.40 769.61 L 637.29 767.54 L 630.33 764.90 L 623.70 761.79 L 617.38 758.20 L 611.34 754.12 L 605.64 749.59 L 600.33 744.68 L 595.42 739.38 L 590.89 733.67 L 586.81 727.64 L 583.22 721.32 L 580.11 714.69 L 577.47 707.73 L 575.40 700.61 L 573.91 693.28 L 572.99 685.71 L 572.65 677.86 L 572.99 670.01 L 573.91 662.43 L 575.40 655.10 L 577.47 647.99 L 580.11 641.03 L 583.22 634.40 L 586.81 628.08 L 590.89 622.05 L 595.42 616.34 L 600.33 611.04 L 605.64 606.12 L 611.34 601.59 L 617.38 597.51 L 623.70 593.92 L 630.33 590.81 L 637.29 588.17 L 644.40 586.11 L 651.73 584.61 L 659.31 583.69 L 667.15 583.36 L 675.00 583.69 L 682.58 584.61 L 689.91 586.11 L 697.02 588.17 L 703.99 590.81 L 710.61 593.92 L 716.93 597.51 L 722.97 601.59 L 728.67 606.12 L 733.98 611.04 L 738.89 616.34 L 743.42 622.05 L 747.50 628.08 L 751.09 634.40 L 754.20 641.03 L 756.84 647.99 L 758.91 655.10 L 760.40 662.43 L 761.32 670.01 L 761.65 677.86 Z" fill="url(#linearGradient-19)" fill-opacity="0.9" fill-rule="nonzero" group-id="1,2,4,12,20,27,34" id="椭圆形_12_" node-id="115" stroke="none" target-height="189" target-width="189" target-x="572.655" target-y="583.35724"></path></g><path d="M 708.62 646.87 L 709.83 648.34 L 710.72 649.91 L 711.31 651.62 L 711.61 653.41 L 711.61 655.19 L 711.31 656.98 L 710.72 658.69 L 709.83 660.26 L 708.62 661.72 L 684.44 685.91 L 708.62 710.09 L 709.83 711.55 L 710.72 713.13 L 711.31 714.84 L 711.61 716.63 L 711.61 718.40 L 711.31 720.19 L 710.72 721.90 L 709.83 723.48 L 708.62 724.94 L 707.16 726.14 L 705.59 727.03 L 703.88 727.63 L 702.09 727.93 L 700.31 727.93 L 698.52 727.63 L 696.81 727.03 L 695.23 726.14 L 693.77 724.94 L 669.59 700.76 L 645.41 724.94 L 643.95 726.14 L 642.37 727.03 L 640.66 727.63 L 638.87 727.93 L 637.09 727.93 L 635.30 727.63 L 633.59 727.03 L 632.02 726.14 L 630.56 724.94 L 629.35 723.48 L 628.46 721.90 L 627.87 720.19 L 627.57 718.40 L 627.57 716.63 L 627.87 714.84 L 628.46 713.13 L 629.35 711.55 L 630.56 710.09 L 654.74 685.91 L 630.56 661.72 L 629.35 660.26 L 628.46 658.69 L 627.87 656.98 L 627.57 655.19 L 627.57 653.41 L 627.87 651.62 L 628.46 649.91 L 629.35 648.34 L 630.56 646.87 L 632.02 645.67 L 633.59 644.78 L 635.30 644.19 L 637.09 643.89 L 638.87 643.89 L 640.66 644.19 L 642.37 644.78 L 643.95 645.67 L 645.41 646.87 L 669.59 671.06 L 693.77 646.87 L 695.29 645.73 L 696.90 644.87 L 698.61 644.28 L 700.40 643.97 L 702.16 643.96 L 703.92 644.23 L 705.61 644.80 L 707.17 645.68 L 708.62 646.87 Z" fill="url(#linearGradient-20)" fill-opacity="0.9" fill-rule="nonzero" group-id="1,2,4,12,20,28" id="形状结合_2_" node-id="117" stroke="none" target-height="84.03638" target-width="84.03638" target-x="627.57227" target-y="643.8887"></path></g></g></g></g></g></svg>